<svg width="40" height="40" viewBox="0 0 40 40" fill="none" xmlns="http://www.w3.org/2000/svg">
<path fill-rule="evenodd" clip-rule="evenodd" d="M0 19.875C0 8.89834 8.89834 0 19.875 0C30.8517 0 39.75 8.89834 39.75 19.875C39.75 30.8517 30.8517 39.75 19.875 39.75C16.3863 39.75 13.1037 38.8499 10.2509 37.2683C10.0763 37.1715 9.90649 37.1674 9.78541 37.2101L5.12155 38.8581C2.264 39.8679 -0.488595 37.1153 0.521143 34.2577L2.23738 29.4008C2.27856 29.2842 2.27667 29.1216 2.1891 28.9513C0.789403 26.229 0 23.1422 0 19.875ZM10.7229 22.2781C11.9993 22.2781 13.0339 21.2434 13.0339 19.9671C13.0339 18.6907 11.9993 17.656 10.7229 17.656C9.44654 17.656 8.41185 18.6907 8.41185 19.9671C8.41185 21.2434 9.44654 22.2781 10.7229 22.2781ZM22.2781 19.9671C22.2781 21.2435 21.2434 22.2782 19.9671 22.2782C18.6907 22.2782 17.656 21.2435 17.656 19.9671C17.656 18.6908 18.6907 17.6561 19.9671 17.6561C21.2434 17.6561 22.2781 18.6908 22.2781 19.9671ZM29.2113 22.2782C30.4876 22.2782 31.5223 21.2435 31.5223 19.9671C31.5223 18.6908 30.4876 17.6561 29.2113 17.6561C27.9349 17.6561 26.9002 18.6908 26.9002 19.9671C26.9002 21.2435 27.9349 22.2782 29.2113 22.2782Z" fill="white"/>
</svg>
