<svg width="24" height="24" viewBox="0 0 24 24" fill="none" xmlns="http://www.w3.org/2000/svg">
<path d="M24 5.30855C23.0972 5.7023 22.1424 5.96398 21.165 6.08555C22.195 5.47449 22.9651 4.50689 23.3295 3.36605C22.365 3.93805 21.3098 4.34086 20.2095 4.55705C19.5349 3.83671 18.6592 3.33592 17.6962 3.11974C16.7333 2.90355 15.7276 2.98196 14.8098 3.34478C13.892 3.7076 13.1045 4.33806 12.5496 5.15425C11.9948 5.97044 11.6982 6.93463 11.6985 7.92155C11.6985 8.31155 11.7315 8.68654 11.8125 9.04354C9.85512 8.94758 7.94004 8.43957 6.19245 7.55272C4.44487 6.66588 2.90414 5.42017 1.671 3.89705C1.03923 4.97983 0.843913 6.26271 1.12482 7.48445C1.40574 8.70619 2.14175 9.77493 3.183 10.473C2.40414 10.4522 1.64171 10.2443 0.96 9.86705V9.92105C0.961305 11.0572 1.354 12.1582 2.07198 13.0387C2.78995 13.9193 3.78937 14.5256 4.902 14.7555C4.48108 14.8665 4.04728 14.921 3.612 14.9175C3.29938 14.9231 2.98708 14.8949 2.6805 14.8335C2.99841 15.8101 3.61124 16.6641 4.43459 17.2779C5.25795 17.8917 6.25134 18.2352 7.278 18.261C5.53641 19.6231 3.38846 20.362 1.1775 20.3595C0.774 20.3595 0.387 20.3415 0 20.292C2.24982 21.7419 4.87151 22.5088 7.548 22.5C16.602 22.5 21.552 15 21.552 8.49904C21.552 8.28154 21.5445 8.07155 21.534 7.86305C22.5044 7.16852 23.3401 6.30287 24 5.30855Z" fill="#FAFBFF"/>
</svg>
